<svg width="35" height="34" viewBox="0 0 35 34" fill="none" xmlns="http://www.w3.org/2000/svg">
<g id="Icon">
<path id="Vector 449 (Stroke)" fill-rule="evenodd" clip-rule="evenodd" d="M21.2049 2.25948C21.6316 2.4974 21.8411 2.99568 21.7126 3.46706L18.8911 13.8125H29.1875C29.6106 13.8125 29.9933 14.0635 30.162 14.4515C30.3306 14.8396 30.2529 15.2907 29.9642 15.6L15.0892 31.5375C14.7559 31.8946 14.2219 31.9784 13.7951 31.7405C13.3684 31.5026 13.1589 31.0043 13.2874 30.5329L16.1089 20.1875H5.81249C5.38941 20.1875 5.00664 19.9365 4.83802 19.5485C4.6694 19.1604 4.74707 18.7093 5.03575 18.4L19.9107 2.46253C20.2441 2.10535 20.7781 2.02156 21.2049 2.25948Z" fill="#262626"/>
</g>
</svg>
